<svg xmlns="http://www.w3.org/2000/svg" viewBox="0 0 1073 1042.5"><defs><style>.cls-1,.cls-2{stroke:#000;stroke-miterlimit:10;}.cls-2{stroke-width:0.5px;}</style></defs><g id="Layer_2" data-name="Layer 2"><ellipse class="cls-1" cx="381" cy="327.5" rx="130.5" ry="151"/><rect class="cls-1" x="338.5" y="371.5" width="85" height="513" rx="42.5"/><rect class="cls-2" x="555.5" y="195.5" width="50" height="206" rx="25"/><rect class="cls-1" x="555.5" y="349.5" width="202" height="133" rx="13.82"/><rect class="cls-1" x="633" y="195.5" width="50" height="206" rx="25"/><rect class="cls-1" x="707.5" y="195.5" width="50" height="200" rx="25"/><rect class="cls-1" x="615.5" y="371.5" width="85" height="513" rx="42.5"/></g><g id="Layer_3" data-name="Layer 3"><path class="cls-1" d="M1109.5,57.5c-296,0-536,233.15-536,520.75s240,520.75,536,520.75,536-233.15,536-520.75S1405.52,57.5,1109.5,57.5Zm.35,975.39c-251.35,0-455.13-203.76-455.13-455.13S858.5,122.61,1109.85,122.61,1565,326.39,1565,577.76,1361.22,1032.89,1109.85,1032.89Z" transform="translate(-573 -57)"/></g></svg>